<svg width="32" height="33" viewBox="0 0 32 33" fill="none" xmlns="http://www.w3.org/2000/svg">
<path d="M23.8096 16.5C23.8096 18.0779 25.0888 19.3571 26.6668 19.3571C28.2447 19.3571 29.5239 18.0779 29.5239 16.5C29.5239 14.922 28.2447 13.6428 26.6668 13.6428C25.0888 13.6428 23.8096 14.922 23.8096 16.5Z" fill="#C15399"/>
<path d="M13.3336 16.5C13.3336 18.0779 14.6128 19.3571 16.1907 19.3571C17.7687 19.3571 19.0479 18.0779 19.0479 16.5C19.0479 14.922 17.7687 13.6428 16.1907 13.6428C14.6128 13.6428 13.3336 14.922 13.3336 16.5Z" fill="#C15399"/>
<path d="M2.85725 16.5C2.85725 18.0779 4.13643 19.3571 5.71439 19.3571C7.29235 19.3571 8.57153 18.0779 8.57153 16.5C8.57153 14.922 7.29235 13.6428 5.71439 13.6428C4.13643 13.6428 2.85725 14.922 2.85725 16.5Z" fill="#C15399"/>
</svg>
