<svg width="25" height="24" viewBox="0 0 25 24" fill="none" xmlns="http://www.w3.org/2000/svg">
<path d="M18.8759 1H6.87585C4.11885 1 1.87585 3.243 1.87585 6V14C1.87585 16.414 3.59685 18.434 5.87585 18.899V22C5.87585 22.369 6.07885 22.708 6.40385 22.882C6.55185 22.961 6.71385 23 6.87585 23C7.06985 23 7.26285 22.943 7.43085 22.832L13.1789 19H18.8759C21.6329 19 23.8759 16.757 23.8759 14V6C23.8759 3.243 21.6329 1 18.8759 1ZM12.3209 17.168L7.87585 20.131V18C7.87585 17.448 7.42785 17 6.87585 17C5.22185 17 3.87585 15.654 3.87585 14V6C3.87585 4.346 5.22185 3 6.87585 3H18.8759C20.5299 3 21.8759 4.346 21.8759 6V14C21.8759 15.654 20.5299 17 18.8759 17H12.8759C12.8059 16.999 12.7059 17.006 12.5919 17.04C12.4719 17.075 12.3809 17.127 12.3209 17.168Z" fill="white"/>
<path d="M18.8759 7H6.87585C6.32385 7 5.87585 7.448 5.87585 8C5.87585 8.552 6.32385 9 6.87585 9H18.8759C19.4279 9 19.8759 8.552 19.8759 8C19.8759 7.448 19.4279 7 18.8759 7Z" fill="white"/>
<path d="M16.8759 11H8.87585C8.32385 11 7.87585 11.448 7.87585 12C7.87585 12.552 8.32385 13 8.87585 13H16.8759C17.4279 13 17.8759 12.552 17.8759 12C17.8759 11.448 17.4279 11 16.8759 11Z" fill="white"/>
</svg>
