<svg width="16" height="16" viewBox="0 0 16 16" fill="none" xmlns="http://www.w3.org/2000/svg">
<path fill-rule="evenodd" clip-rule="evenodd" d="M7.78109 0.666672C3.731 0.666672 0.447754 3.94992 0.447754 8C0.447754 12.0501 3.731 15.3333 7.78109 15.3333C11.8312 15.3333 15.1144 12.0501 15.1144 8C15.1144 3.94992 11.8312 0.666672 7.78109 0.666672ZM6.78109 6C6.78109 5.63181 6.48261 5.33334 6.11442 5.33334C5.74623 5.33334 5.44775 5.63181 5.44775 6V10C5.44775 10.3682 5.74623 10.6667 6.11442 10.6667C6.48261 10.6667 6.78109 10.3682 6.78109 10V6ZM10.1144 6C10.1144 5.63181 9.81594 5.33334 9.44775 5.33334C9.07956 5.33334 8.78109 5.63181 8.78109 6V10C8.78109 10.3682 9.07956 10.6667 9.44775 10.6667C9.81594 10.6667 10.1144 10.3682 10.1144 10V6Z" fill="black"/>
</svg>
