<svg width="49" height="48" viewBox="0 0 49 48" fill="none" xmlns="http://www.w3.org/2000/svg">
<rect x="1.37585" y="0.5" width="47" height="47" rx="23.5" stroke="#B56FBB"/>
<path fill-rule="evenodd" clip-rule="evenodd" d="M26.6233 32.4428H33.8759H26.6233Z" fill="white"/>
<path d="M26.6233 32.4428H33.8759" stroke="white" stroke-linecap="round" stroke-linejoin="round"/>
<path fill-rule="evenodd" clip-rule="evenodd" d="M25.6559 15.7948C26.4315 14.8678 27.8258 14.7319 28.7721 15.4917C28.8244 15.533 30.5053 16.8388 30.5053 16.8388C31.5448 17.4672 31.8678 18.8031 31.2252 19.8226C31.1911 19.8772 21.6878 31.7645 21.6878 31.7645C21.3716 32.1589 20.8917 32.3918 20.3788 32.3973L16.7394 32.443L15.9194 28.9723C15.8045 28.4843 15.9194 27.9718 16.2356 27.5773L25.6559 15.7948Z" fill="white" stroke="white" stroke-linecap="round" stroke-linejoin="round"/>
<path fill-rule="evenodd" clip-rule="evenodd" d="M23.8967 18.001L29.349 22.1881L23.8967 18.001Z" fill="white"/>
<path d="M23.8967 18.001L29.349 22.1881" stroke="white" stroke-linecap="round" stroke-linejoin="round"/>
</svg>
