<svg width="32" height="33" viewBox="0 0 32 33" fill="none" xmlns="http://www.w3.org/2000/svg">
<path d="M16 4.5C20.6 4.5 23.5867 5.15333 25.4267 6.92667C27.2667 8.7 28 11.7667 28 16.5C28 20.9933 27.3867 23.94 25.6933 25.8333C24 27.7267 20.84 28.5 16 28.5C11.16 28.5 8 27.7533 6.21333 25.6867C4.6 23.8333 4 20.9133 4 16.5C4 11.8333 4.66667 8.83333 6.49333 7.00667C8.32 5.18 11.3333 4.5 16 4.5Z" stroke="#C15399" stroke-width="1.7" stroke-linecap="round" stroke-linejoin="round"/>
<path d="M18.6667 28.1667V4.83337" stroke="#C15399" stroke-width="1.7" stroke-linecap="round" stroke-linejoin="round"/>
<path d="M13.3333 11.1666H9.33325" stroke="#C15399" stroke-width="1.7" stroke-linecap="round" stroke-linejoin="round"/>
<path d="M13.3333 16.5H9.33325" stroke="#C15399" stroke-width="1.7" stroke-linecap="round" stroke-linejoin="round"/>
</svg>
