<svg width="21" height="20" viewBox="0 0 21 20" fill="none" xmlns="http://www.w3.org/2000/svg">
<path d="M10.5618 0C5.04807 0 0.561768 4.4863 0.561768 10C0.561768 15.5137 5.04807 20 10.5618 20C16.0755 20 20.5618 15.5137 20.5618 10C20.5618 4.4863 16.0755 0 10.5618 0ZM14.0606 5.9976C14.8897 5.9976 15.5618 6.6697 15.5618 7.4988C15.5618 8.3279 14.8897 9 14.0606 9C13.2315 9 12.5594 8.3279 12.5594 7.4988C12.5594 6.6697 13.2315 5.9976 14.0606 5.9976ZM7.06057 5.9976C7.88967 5.9976 8.56177 6.6697 8.56177 7.4988C8.56177 8.3279 7.88967 9 7.06057 9C6.23147 9 5.55937 8.3279 5.55937 7.4988C5.55937 6.6697 6.23147 5.9976 7.06057 5.9976ZM15.7347 12.4004C14.8362 14.457 12.805 15.7861 10.5618 15.7861C8.31857 15.7861 6.28737 14.457 5.38887 12.4004C5.16717 11.8945 5.39867 11.3047 5.90447 11.084C6.41127 10.8594 7.00117 11.0947 7.22087 11.5996C7.80197 12.9277 9.11347 13.7861 10.5617 13.7861C12.0099 13.7861 13.3215 12.9277 13.9025 11.5996C14.1232 11.0928 14.714 10.8603 15.2189 11.084C15.7249 11.3047 15.9563 11.8945 15.7347 12.4004Z" fill="#C15399"/>
</svg>
